<?xml version="1.0" encoding="utf-8"?>
<svg viewBox="211.463 -230.96 733.959 847.939" xmlns="http://www.w3.org/2000/svg" xmlns:bx="https://boxy-svg.com">
  <defs>
    <clipPath id="clip-path">
      <polygon class="cls-1" points="369.51 7.4 728.21 214.47 728.21 636.62 369.51 845.03 2.79 636.62 2.79 214.47 369.51 7.4" style="fill: none;"/>
    </clipPath>
    <linearGradient id="linear-gradient" x1="366.25" y1="-122.39" x2="367.55" y2="341.13" gradientUnits="userSpaceOnUse">
      <stop offset="0" stop-color="#fff" stop-opacity="0.83"/>
      <stop offset="0.56" stop-color="#fff" stop-opacity="0.37"/>
      <stop offset="1" stop-color="#fff" stop-opacity="0"/>
    </linearGradient>
  </defs>
  <g class="cls-2" transform="matrix(1, 0, 0, 1, 211.10708, -231.549328)" style="clip-path: url(#clip-path);">
    <circle class="cls-3" cx="365.5" cy="437.45" r="442.13" style="fill: rgb(208, 235, 230);"/>
    <ellipse class="cls-4" cx="366.89" cy="105.8" rx="315.24" ry="234.63" style="opacity: 0.25; fill: url(#linear-gradient);"/>
    <g stroke="none" stroke-width="1" fill="none" fill-rule="evenodd" transform="matrix(0.699987, 0, 0, 0.637449, 298.768585, 481.196014)">
      <g fill="#00D1B2">
        <polygon id="Path" points="0 220 20 80 100 0 200 100 140 160 220 240 100 320"/>
      </g>
    </g>
    <path d="M 584.581 225.664 C 579.901 216.965 573.783 209.043 566.401 202.219 L 314.515 200.23 L 521.916 176.635 C 508.337 172.295 494.149 169.983 479.802 169.85 C 459.869 156.792 434.193 148.927 406.21 148.927 C 381.088 148.927 357.843 155.295 338.94 165.983 C 322.835 159.275 304.502 155.465 285.005 155.465 C 229.039 155.465 182.433 186.869 171.962 228.545 Z" opacity="0.1" transform="matrix(0.999998, -0.002227, 0.002227, 0.999998, -0.676143, 0.822948)" style="fill: rgb(0, 209, 178);" bx:origin="0.478 1.948"/>
    <path d="M 593.448 260.592 C 593.406 249.183 590.72 237.925 585.568 227.615 L 148.999 264.781 C 144.579 271.261 141.127 278.312 138.8 285.703 L 274.001 302.021 L 135.727 313.923 C 139.899 361.113 189.775 398.316 250.733 398.316 C 281.379 398.316 309.262 388.896 329.901 373.526 C 350.644 389.162 378.768 398.827 409.79 398.827 C 455.809 398.827 495.51 377.601 513.995 346.899 C 551.113 337.347 579.92 313.411 589.743 283.428 L 418.782 261.938 L 593.448 261.938 C 593.448 261.502 593.448 261.066 593.448 260.592 Z" opacity="0.1" transform="matrix(0.999998, -0.002227, 0.002227, 0.999998, -0.676037, 0.823903)" style="fill: rgb(0, 209, 178);" bx:origin="0.511 0.446"/>
    <path d="M 250.795 305.716 C 248.051 308.331 235.225 311.212 235.225 311.212 C 235.225 311.212 238.183 298.836 240.905 296.24 C 244.674 292.563 251.186 294.25 252.588 299.234 C 253.221 301.547 252.551 304.011 250.795 305.716 Z" transform="matrix(0.999998, -0.002227, 0.002227, 0.999998, -0.676143, 0.823057)" fill="#6c63ff" bx:origin="7.616 0.576"/>
    <path d="M 253.187 332.799 C 250.957 335.849 238.763 340.739 238.763 340.739 C 238.763 340.739 239.511 328.099 241.759 325.105 C 244.857 320.877 251.547 321.466 253.798 326.127 C 254.903 328.288 254.628 330.846 253.187 332.799 Z" transform="matrix(0.999998, -0.002227, 0.002227, 0.999998, -0.6762, 0.823935)" fill="#6c63ff" bx:origin="8.329 -0.985"/>
    <path d="M 250.795 305.716 C 248.051 308.331 235.225 311.212 235.225 311.212 C 235.225 311.212 238.183 298.836 240.905 296.24 C 244.674 292.563 251.186 294.25 252.588 299.234 C 253.221 301.547 252.551 304.011 250.795 305.716 Z" opacity="0.25" transform="matrix(0.999998, -0.002227, 0.002227, 0.999998, -0.676143, 0.823057)" bx:origin="7.616 0.576"/>
    <path d="M 253.187 332.799 C 250.957 335.849 238.763 340.739 238.763 340.739 C 238.763 340.739 239.511 328.099 241.759 325.105 C 244.857 320.877 251.547 321.466 253.798 326.127 C 254.903 328.288 254.628 330.846 253.187 332.799 Z" opacity="0.25" transform="matrix(0.999998, -0.002227, 0.002227, 0.999998, -0.6762, 0.823935)" bx:origin="8.329 -0.985"/>
    <ellipse cx="229.152" cy="284.98" rx="72.522" ry="4.113" opacity="0.1" transform="matrix(0.999998, -0.002227, 0.002415, 0.999997, 135.360641, 149.456161)" style="fill: rgb(0, 209, 178);" bx:origin="0.531 -15.257"/>
    <path d="M 398.23 426.687 L 398.23 429.17 L 321.426 429.17 L 321.425 427.179 C 339.619 420.66 343.7 397.709 328.739 385.864 C 327.042 384.499 325.166 383.363 323.153 382.471 L 397.709 382.471 C 380.009 390.242 377.783 413.439 393.652 424.223 C 395.052 425.17 396.593 426.023 398.23 426.687 Z" transform="matrix(0.999998, -0.002227, 0.002227, 0.999998, -0.676233, 0.82347)" fill="#c8cad7" bx:origin="0.625 -1.679"/>
    <path d="M 397.709 382.471 C 390.743 385.542 385.633 391.398 383.76 398.524 L 337.129 398.524 C 335.193 391.398 330.061 385.542 323.153 382.471 Z" opacity="0.1" transform="matrix(0.999998, -0.002227, 0.002227, 0.999998, -0.676065, 0.823524)" bx:origin="0.621 -4.889"/>
    <path d="M 233.46 369.774 L 233.462 383.742 C 233.464 391.493 239.326 397.766 246.628 397.766 L 472.642 397.766 C 479.884 397.766 485.803 391.493 485.801 383.742 L 485.799 369.774 Z" transform="matrix(0.999998, -0.002227, 0.002227, 0.999998, -0.675888, 0.823567)" fill="#c8cad7" bx:origin="0.539 -2.353"/>
    <path d="M 398.23 426.687 L 398.23 429.17 L 321.426 429.17 L 321.425 427.179 C 323.497 426.421 325.49 425.378 327.325 424.147 L 393.513 424.147 C 394.974 425.132 396.552 426.023 398.23 426.687 Z" opacity="0.1" transform="matrix(0.999998, -0.002227, 0.002227, 0.999998, -0.677415, 0.823471)" bx:origin="0.625 -23.801"/>
    <rect x="160.3" y="275.978" width="127.621" height="7.392" rx="9.5" ry="9.5" transform="matrix(0.999998, -0.002227, 0.002415, 0.999997, 135.360641, 149.456161)" fill="#c8cad7" bx:origin="0.575 -16.39"/>
    <path d="M 485.77 216.604 C 485.769 209.649 479.848 203.983 472.606 203.983 L 246.591 203.983 C 239.289 203.983 233.43 209.649 233.431 216.604 L 233.461 372.485 L 485.8 372.485 Z" transform="matrix(0.999998, -0.002227, 0.002227, 0.999998, -0.676255, 0.823536)" fill="#474157" bx:origin="0.539 0.594"/>
    <circle cx="5.376" cy="1.53" r="0.073" transform="matrix(41.649452, -0.09277, 0.096381, 39.919243, 135.360641, 149.456161)" fill="#fff" bx:origin="2.114 16.639"/>
    <path d="M 478.865 222.27 L 240.3 222.27 C 240.3 218.84 243.199 216.036 246.792 216.036 L 472.39 216.036 C 475.983 216.036 478.864 218.84 478.865 222.27 Z" transform="matrix(0.999998, -0.002227, 0.002227, 0.999998, -0.676809, 0.823327)" fill="#c8cad7" bx:origin="0.541 14.162"/>
    <circle cx="2.667" cy="1.759" r="0.039" transform="matrix(41.649452, -0.09277, 0.096381, 39.919243, 135.360641, 149.456161)" fill="#ededf4" bx:origin="38.339 27.823"/>
    <circle cx="2.784" cy="1.759" r="0.039" transform="matrix(41.649452, -0.09277, 0.096381, 39.919243, 135.360641, 149.456161)" fill="#ededf4" bx:origin="36.839 27.823"/>
    <circle cx="2.9" cy="1.759" r="0.039" transform="matrix(41.649452, -0.09277, 0.096381, 39.919243, 135.360641, 149.456161)" fill="#ededf4" bx:origin="35.339 27.823"/>
    <rect x="239.801" y="223.181" width="238.565" height="142.993" style="fill: rgb(237, 237, 244);"/>
    <ellipse cx="302.542" cy="303.307" rx="18.984" ry="3.317" opacity="0.1" transform="matrix(0.999998, -0.002227, 0.002415, 0.999997, 145.120773, 184.257675)" style="fill: rgb(0, 209, 178);" bx:origin="-1.313 -21.882"/>
    <ellipse cx="341.814" cy="284.962" rx="6.947" ry="0.683" opacity="0.1" transform="matrix(0.999998, -0.002227, 0.002415, 0.999997, 145.120773, 184.257675)" style="fill: rgb(0, 209, 178);" bx:origin="-7.287 -95.619"/>
    <path d="M 485.032 416.699 C 481.835 418.329 478.991 406.9 478.991 406.9 L 478.872 405.271 L 478.654 402.257 L 482.582 402.731 C 482.504 403.414 482.504 404.058 482.582 404.721 C 482.622 405.48 482.82 406.295 483.273 406.636 C 484.339 407.374 488.248 415.069 485.032 416.699 Z" transform="matrix(0.999998, -0.002227, 0.002227, 0.999998, -0.753567, 0.845496)" fill="#a1616a" bx:origin="-13.037 -4.346"/>
    <path d="M 436.873 483.523 L 437.11 483.334 C 437.03 483.391 436.951 483.485 436.873 483.523 Z" transform="matrix(0.999998, -0.002227, 0.002227, 0.999998, -0.768194, 0.861683)" fill="#a1616a" bx:origin="-212.372 -729.953"/>
    <path d="M 444.874 420.66 L 444.875 428.468 C 444.875 428.809 444.875 429.151 444.875 429.472 C 444.797 432.428 444.56 435.347 444.088 438.228 C 443.969 438.948 443.97 439.65 444.009 440.331 C 444.306 443.004 443.637 453.143 443.637 453.143 L 442.376 466.334 C 442.376 466.334 443.108 473.46 442.812 474.464 C 442.733 474.862 442.733 475.298 442.733 475.696 C 442.773 476.852 442.971 478.369 443.049 478.823 L 443.05 478.918 L 443.01 478.974 L 437.071 483.334 C 438.038 482.481 438.274 480.586 438.274 478.785 C 438.274 478.576 438.274 478.406 438.274 478.216 C 438.273 476.548 438.313 474.862 438.47 473.194 C 438.648 470.447 437.522 466.239 436.673 463.661 C 435.606 460.307 434.556 440.806 435.109 439.782 C 435.681 438.778 435.069 436.105 434.318 434.628 C 433.884 433.718 433.508 430.534 433.272 428.164 C 433.094 426.762 433.015 425.682 433.015 425.682 Z" transform="matrix(0.999998, -0.002227, 0.002227, 0.999998, -0.753584, 0.845438)" fill="#a1616a" bx:origin="-4.533 -1.306"/>
    <path d="M 457.518 481.799 L 457.814 481.572 C 457.735 481.666 457.655 481.723 457.518 481.799 Z" transform="matrix(0.999998, -0.002227, 0.002227, 0.999998, -0.727201, 0.842694)" fill="#a1616a" bx:origin="-268.533 -681.052"/>
    <path d="M 465.574 418.897 L 465.576 426.725 C 465.576 427.198 465.576 427.691 465.576 428.202 C 465.459 430.951 465.203 433.718 464.809 436.465 C 464.67 437.186 464.67 437.888 464.71 438.607 C 465.006 441.242 464.337 451.381 464.337 451.381 L 463.136 464.572 C 463.136 464.572 463.829 471.697 463.552 472.72 C 463.473 473.118 463.434 473.554 463.473 473.933 C 463.513 475.09 463.71 476.625 463.79 477.061 C 463.79 477.156 463.79 477.193 463.79 477.193 L 463.75 477.231 L 463.75 477.231 L 457.811 481.572 C 458.718 480.718 458.975 478.823 458.974 477.061 C 458.974 476.852 458.974 476.663 458.974 476.473 C 458.974 474.786 459.052 473.156 459.171 471.47 C 459.348 468.722 458.203 464.534 457.393 461.899 C 456.287 458.582 455.257 439.099 455.81 438.058 C 456.382 437.015 455.77 434.4 455.039 432.864 C 454.802 432.353 454.565 431.083 454.329 429.643 C 453.972 427.047 453.676 423.957 453.676 423.957 Z" transform="matrix(0.999998, -0.002227, 0.002227, 0.999998, -0.753424, 0.845093)" fill="#a1616a" bx:origin="-6.267 -1.279"/>
    <path d="M 454.451 344.776 L 454.392 344.852 C 453.108 346.576 451.156 347.733 449.004 347.961 C 448.649 347.998 448.373 348.036 448.037 348.036 C 447.978 347.922 447.978 347.827 447.939 347.771 C 447.504 345.799 446.99 344.246 446.99 344.246 C 446.99 344.246 447.543 343.526 448.333 342.578 C 450.404 340.058 454.271 336.021 453.996 341.422 C 453.917 342.502 454.035 343.563 454.351 344.605 C 454.392 344.644 454.392 344.682 454.451 344.776 Z" opacity="0.1" transform="matrix(0.999998, -0.002227, 0.002227, 0.999998, -0.753615, 0.845001)" bx:origin="-9.105 0.008"/>
    <path d="M 455.83 340.266 C 455.831 343.999 452.912 347.202 449.004 347.695 C 448.649 347.733 448.333 347.733 448.037 347.733 L 447.939 347.733 C 441.959 347.695 438.248 341.422 441.287 336.438 C 444.344 331.491 451.862 331.51 454.824 336.551 C 455.495 337.669 455.83 338.939 455.83 340.266 Z" transform="matrix(0.999998, -0.002227, 0.002227, 0.999998, -0.753572, 0.845342)" fill="#a1616a" bx:origin="-3.903 0.404"/>
    <path d="M 463.413 362.098 L 455.836 368.276 C 455.836 368.276 447.585 356.981 448.532 354.67 C 448.867 353.949 448.828 352.642 448.61 351.182 C 448.531 350.442 448.373 349.552 448.175 348.756 C 448.136 348.51 448.077 348.282 448.037 348.036 C 447.978 347.922 447.939 347.827 447.939 347.771 C 447.504 345.799 446.99 344.245 446.99 344.245 C 446.99 344.245 447.543 343.526 448.293 342.577 C 450.404 340.019 454.271 336.021 453.956 341.384 C 453.917 342.502 454.035 343.563 454.351 344.605 C 454.351 344.682 454.39 344.72 454.392 344.814 C 455.496 347.96 458.102 350.519 460.175 352.072 C 460.983 352.755 461.852 353.323 462.779 353.873 Z" transform="matrix(0.999998, -0.002227, 0.002227, 0.999998, -0.753603, 0.845419)" fill="#a1616a" bx:origin="-4.125 0.003"/>
    <path d="M 433.015 425.682 L 444.874 420.66 L 444.875 428.468 C 444.875 428.809 444.875 429.151 444.875 429.472 C 444.638 429.415 444.362 429.283 444.126 429.151 C 441.758 427.748 438.857 428.828 438.639 428.828 C 438.422 428.828 436.094 429.794 433.607 428.355 C 433.469 428.259 433.39 428.24 433.272 428.202 C 433.094 426.762 433.015 425.682 433.015 425.682 Z" opacity="0.1" transform="matrix(0.999998, -0.002227, 0.002227, 0.999998, -0.754011, 0.845438)" bx:origin="-4.533 -9.267"/>
    <path d="M 465.574 418.897 L 465.576 426.725 C 465.576 427.198 465.576 427.691 465.576 428.202 C 465.379 428.43 465.261 428.734 465.163 429.036 C 464.708 429.985 461.827 430.326 459.261 429.928 C 457.644 429.719 456.005 429.643 454.329 429.643 C 453.972 427.047 453.715 423.957 453.715 423.957 Z" opacity="0.1" transform="matrix(0.999998, -0.002227, 0.002227, 0.999998, -0.753395, 0.845248)" bx:origin="-6.285 -7.162"/>
    <path d="M 477.257 421.133 C 475.245 421.418 470.233 425.474 467.806 426.327 C 465.3 427.123 465.576 427.274 465.122 428.24 C 464.708 429.207 461.788 429.511 459.261 429.113 C 456.677 428.734 451.842 428.828 451.842 428.828 C 451.842 428.828 446.474 429.719 444.085 428.317 C 441.758 426.933 438.857 427.994 438.639 427.994 C 438.422 427.994 436.054 428.961 433.607 427.521 C 431.1 426.118 427.766 426.63 427.766 426.63 C 427.766 426.63 425.061 425.17 423.483 425.966 C 421.925 426.8 418.53 424.336 417.641 423.616 C 416.812 422.84 419.279 420.452 421.154 419.788 C 423.028 419.106 426.539 408.721 426.894 408.398 C 427.268 408.076 428.807 404.456 428.61 402.997 C 428.373 401.575 432.634 395.037 432.634 395.037 L 435.336 386.244 L 436.184 383.533 L 436.184 381.903 C 436.184 381.164 436.223 380.254 436.262 379.175 C 436.34 374.815 436.379 368.41 436.259 365.491 C 436.22 365.055 436.22 364.657 436.18 364.41 C 435.785 361.454 439 355.068 439.79 353.798 C 440.362 352.793 444.151 352.072 446.42 351.636 C 446.913 351.523 447.446 351.391 447.979 351.219 C 448.216 351.182 448.413 351.182 448.61 351.182 C 450.741 351.277 456.998 352.547 456.998 352.547 C 456.428 368.959 457.572 366.078 457.572 366.078 C 459.407 364.714 458.3 352.679 458.3 352.679 C 459.208 353.077 460.115 352.072 460.115 352.072 L 463.727 353.494 C 464.833 354.1 465.918 354.821 466.905 355.56 C 467.793 356.147 468.543 356.849 469.154 357.664 C 470.181 359.388 471.701 364.202 471.701 364.202 L 470.419 366.116 C 469.314 367.84 467.579 370.513 465.823 373.185 L 462.705 377.943 C 461.285 380.103 460.181 381.808 459.707 382.491 C 459.589 382.699 459.489 382.85 459.45 383.059 C 459.45 383.173 459.411 383.325 459.411 383.438 C 459.411 384.007 459.45 384.518 459.589 385.049 C 460.497 389.124 464.524 395.775 464.524 395.775 C 464.524 395.775 468.591 401.746 468.669 403.603 C 468.71 405.517 473.072 407.545 474.019 410.16 C 475.046 412.757 477.256 413.705 476.96 415.277 C 476.704 416.869 479.803 417.552 480.355 418.537 C 480.948 419.58 479.211 420.869 477.257 421.133 Z" transform="matrix(0.999998, -0.002227, 0.002227, 0.999998, -0.753487, 0.845259)" style="fill: rgb(2, 120, 102);" bx:origin="-0.608 -0.159"/>
    <path d="M 482.543 404.721 C 481.438 405.403 479.524 405.403 478.872 405.271 L 478.654 402.257 L 482.582 402.731 C 482.504 403.414 482.504 404.058 482.543 404.721 Z" opacity="0.1" transform="matrix(0.999998, -0.002227, 0.002227, 0.999998, -0.753576, 0.844235)" bx:origin="-25.443 -20.586"/>
    <path d="M 468.82 362.212 L 471.74 364.165 C 471.74 364.165 473.103 369.357 474.328 371.195 C 475.492 373.034 475.374 375.422 475.374 375.422 C 475.769 375.877 476.164 376.313 476.479 376.786 C 477.368 377.866 478.474 383.325 478.079 384.044 C 477.645 384.765 480.527 390.621 480.527 390.621 C 480.527 390.621 480.942 391 481.791 393.16 C 482.62 395.264 481.792 397.709 481.792 397.709 C 481.792 397.709 483.984 402.409 483.037 403.678 C 482.109 405.006 479.168 404.835 478.695 404.721 C 478.28 404.57 479.879 403.85 477.076 403.603 C 474.334 403.414 470.701 398.733 470.701 398.733 C 469.241 396.212 468.194 393.539 467.582 390.753 C 466.95 387.872 466.081 385.031 464.995 382.282 C 464.66 381.297 463.079 374.664 463.079 374.664 Z" transform="matrix(0.999998, -0.002227, 0.002227, 0.999998, -0.75364, 0.8452)" style="fill: rgb(1, 150, 127);" bx:origin="-4.156 -0.549"/>
    <path d="M 446.994 362.212 C 446.994 362.212 446.78 378.018 444.787 381.126 Z" opacity="0.1" transform="matrix(0.999998, -0.002227, 0.002227, 0.999998, -0.753644, 0.845017)" bx:origin="-29.779 -1.236"/>
    <path d="M 458.54 367.803 C 458.54 367.803 456.668 383.609 455.208 384.405 C 453.748 385.238 458.54 367.803 458.54 367.803 Z" opacity="0.1" transform="matrix(0.999998, -0.002227, 0.002227, 0.999998, -0.753677, 0.844043)" bx:origin="-21.144 -1.741"/>
    <path d="M 455.835 365.567 C 455.835 365.567 455.404 380.444 453.036 381.941 C 450.708 383.401 455.835 365.567 455.835 365.567 Z" opacity="0.1" transform="matrix(0.999998, -0.002227, 0.002227, 0.999998, -0.753614, 0.845402)" bx:origin="-21.494 -1.625"/>
    <path d="M 435.417 393.749 C 435.417 393.749 432.478 402.012 432.794 405.404 C 433.149 408.796 435.417 393.749 435.417 393.749 Z" opacity="0.1" transform="matrix(0.999998, -0.002227, 0.002227, 0.999998, -0.753525, 0.844705)" bx:origin="-20.344 -4.523"/>
    <path d="M 459.628 385.599 C 455.8 386.452 445.38 387.91 436.223 382.452 C 436.223 381.733 436.262 380.784 436.262 379.743 C 439.755 381.581 449.504 386.319 454.457 384.992 C 456.944 384.329 458.542 383.874 459.489 383.609 C 459.411 384.291 459.45 384.954 459.628 385.599 Z" opacity="0.1" transform="matrix(0.999998, -0.002227, 0.002227, 0.999998, -0.753572, 0.845337)" bx:origin="-2.436 -6.116"/>
    <path d="M 459.628 384.803 C 455.8 385.599 445.38 387.096 436.223 381.637 C 436.223 380.899 436.262 379.969 436.262 378.928 C 439.755 380.784 449.504 385.523 454.457 384.178 C 456.944 383.533 458.542 383.097 459.489 382.812 C 459.411 383.438 459.45 384.12 459.628 384.803 Z" opacity="0.1" transform="matrix(0.999998, -0.002227, 0.002227, 0.999998, -0.753692, 0.845337)" bx:origin="-2.436 -5.997"/>
    <path d="M 459.628 385.087 C 455.8 385.883 445.38 387.399 436.223 381.941 C 436.223 381.201 436.262 380.254 436.262 379.231 C 439.755 381.05 449.504 385.807 454.457 384.48 C 456.944 383.818 458.542 383.363 459.489 383.097 C 459.411 383.78 459.45 384.442 459.628 385.087 Z" transform="matrix(0.999998, -0.002227, 0.002227, 0.999998, -0.753881, 0.845337)" fill="#605d82" bx:origin="-2.436 -6.04"/>
    <path d="M 459.628 385.087 C 455.8 385.883 445.38 387.399 436.223 381.941 C 436.223 381.201 436.262 380.254 436.262 379.231 C 439.755 381.05 449.504 385.807 454.457 384.48 C 456.944 383.818 458.542 383.363 459.489 383.097 C 459.411 383.78 459.45 384.442 459.628 385.087 Z" opacity="0.1" transform="matrix(0.999998, -0.002227, 0.002227, 0.999998, -0.753881, 0.845337)" bx:origin="-2.436 -6.04"/>
    <path d="M 443.05 478.823 C 443.05 478.918 443.05 478.974 443.05 479.012 L 437.111 483.334 C 438.077 482.519 438.314 480.586 438.314 478.823 C 438.314 478.615 438.314 478.406 438.314 478.217 C 438.826 476.985 439.556 475.867 440.464 474.863 C 441.53 474.616 442.141 474.863 442.536 475.299 C 442.536 475.355 442.536 475.393 442.536 475.431 C 442.615 475.507 442.694 475.62 442.734 475.735 C 443.306 476.701 443.148 478.312 443.05 478.823 Z" opacity="0.1" transform="matrix(0.999998, -0.002227, 0.002227, 0.999998, -0.7541, 0.845619)" bx:origin="-9.572 -15.839"/>
    <path d="M 442.615 476.625 L 438.155 479.563 C 438.155 479.563 438.155 479.221 438.195 478.748 C 438.747 477.42 439.517 476.169 440.464 475.146 C 441.53 474.862 442.141 475.146 442.536 475.582 C 442.575 476.208 442.615 476.625 442.615 476.625 Z" opacity="0.1" transform="matrix(0.999998, -0.002227, 0.002227, 0.999998, -0.754444, 0.84609)" bx:origin="-13.141 -29.979"/>
    <path d="M 443.05 479.297 C 442.419 480.642 442.103 482.178 442.103 483.636 C 442.143 484.887 441.827 486.119 441.137 487.2 C 441.058 487.351 440.979 487.466 440.861 487.636 C 440.861 487.636 437.723 487.598 436.637 486.764 C 436.519 486.651 436.44 486.555 436.361 486.404 C 435.729 485.191 437.564 480.642 437.564 480.642 C 438.51 477.155 440.464 475.26 440.464 475.26 C 443.976 474.388 443.05 479.297 443.05 479.297 Z" transform="matrix(0.999998, -0.002227, 0.002227, 0.999998, -0.753655, 0.845551)" fill="#5a5773" bx:origin="-8.212 -10.923"/>
    <path d="M 441.137 487.2 C 441.057 487.351 440.979 487.466 440.861 487.636 C 440.861 487.636 437.723 487.598 436.637 486.726 C 437.189 485.058 438.906 479.903 439.694 480.776 C 440.465 481.666 440.979 485.57 441.137 487.2 Z" opacity="0.1" transform="matrix(0.999998, -0.002227, 0.002227, 0.999998, -0.753632, 0.845767)" bx:origin="-12.719 -20.384"/>
    <path d="M 440.741 481.097 L 440.506 488.792 L 441.571 488.792 C 441.571 488.792 441.727 482.045 442.181 481.097 C 442.695 480.131 440.741 481.097 440.741 481.097 Z" transform="matrix(0.999998, -0.002227, 0.002227, 0.999998, -0.753858, 0.844783)" fill="#5a5773" bx:origin="-34.947 -17.446"/>
    <path d="M 463.75 477.099 L 463.71 477.25 L 463.71 477.25 L 457.811 481.571 C 458.718 480.718 458.975 478.823 458.974 477.061 C 458.974 476.852 458.974 476.663 458.974 476.473 C 459.507 475.222 460.237 474.103 461.185 473.118 C 462.191 472.873 462.802 473.118 463.216 473.554 C 463.216 473.592 463.216 473.63 463.216 473.668 C 463.296 473.763 463.355 473.858 463.434 473.99 C 464.026 474.976 463.829 476.586 463.75 477.099 Z" opacity="0.1" transform="matrix(0.999998, -0.002227, 0.002227, 0.999998, -0.753814, 0.844976)" bx:origin="-13.052 -15.685"/>
    <path d="M 463.296 474.863 L 458.796 477.819 C 458.796 477.819 458.837 477.497 458.876 476.985 C 459.428 475.658 460.197 474.407 461.183 473.384 C 462.19 473.156 462.802 473.346 463.216 473.839 C 463.216 474.465 463.296 474.863 463.296 474.863 Z" opacity="0.1" transform="matrix(0.999998, -0.002227, 0.002227, 0.999998, -0.754683, 0.844668)" bx:origin="-17.753 -29.573"/>
    <path d="M 463.71 477.535 C 463.099 478.899 462.764 480.415 462.803 481.931 C 462.804 483.163 462.508 484.376 461.837 485.438 C 461.759 485.608 461.641 485.76 461.522 485.873 C 461.522 485.873 458.444 485.836 457.358 485.021 C 457.219 484.887 457.101 484.812 457.062 484.642 C 456.45 483.485 458.245 478.899 458.245 478.899 C 459.231 475.393 461.185 473.498 461.185 473.498 C 464.676 472.645 463.71 477.535 463.71 477.535 Z" transform="matrix(0.999998, -0.002227, 0.002227, 0.999998, -0.753775, 0.846356)" fill="#5a5773" bx:origin="-11.202 -10.782"/>
    <path d="M 461.837 485.438 C 461.759 485.608 461.641 485.76 461.522 485.873 C 461.522 485.873 458.444 485.836 457.358 485.021 C 457.851 483.296 459.567 478.141 460.396 479.012 C 461.185 479.904 461.639 483.808 461.837 485.438 Z" opacity="0.1" transform="matrix(0.999998, -0.002227, 0.002227, 0.999998, -0.753724, 0.846843)" bx:origin="-17.297 -20.123"/>
    <path d="M 461.423 479.335 L 461.187 487.049 L 462.272 487.049 C 462.272 487.049 462.429 480.302 462.883 479.335 C 463.356 478.369 461.423 479.335 461.423 479.335 Z" transform="matrix(0.999998, -0.002227, 0.002227, 0.999998, -0.752951, 0.84365)" fill="#5a5773" bx:origin="-46.73 -17.239"/>
    <path d="M 470.696 368.276 C 470.657 370.21 469.571 372.276 467.618 372.863 C 467.026 373.034 466.434 373.072 465.882 373.185 C 465.566 373.223 465.329 373.298 465.072 373.432 C 463.81 373.943 463.198 375.308 462.962 376.615 C 462.863 377.07 462.784 377.506 462.744 377.941 C 462.646 378.814 462.488 379.667 462.213 380.444 C 461.621 381.695 460.654 382.756 459.45 383.438 C 458.029 384.253 456.51 384.859 454.912 385.238 C 456.549 382.85 457.003 379.894 456.114 377.128 C 455.877 376.35 455.324 375.46 454.456 375.498 C 453.745 375.498 453.292 376.104 452.759 376.539 C 450.254 378.7 446.345 377.734 443.129 376.615 C 448.83 371.119 450.368 362.137 446.954 355.143 C 446.658 354.574 446.421 354.006 446.301 353.4 C 446.164 352.793 446.262 352.206 446.46 351.599 C 446.695 350.878 447.13 350.197 447.583 349.552 C 447.781 349.287 447.978 349.04 448.215 348.756 C 448.492 348.397 448.728 348.036 449.004 347.695 C 449.359 347.165 449.615 346.614 449.774 346.008 C 450.168 344.682 449.654 343.014 448.332 342.539 L 448.254 342.539 C 446.773 342.104 446.339 341.933 445.332 340.815 C 444.661 340.057 444.227 338.845 443.122 338.673 C 442.234 338.466 441.247 338.845 440.319 339.09 C 441.246 333.386 448.251 330.752 452.948 334.391 C 456.146 336.873 456.818 341.327 454.39 344.567 C 455.437 347.827 458.102 350.442 460.214 352.034 L 463.766 353.457 C 464.911 354.1 465.957 354.783 466.983 355.56 C 467.517 357.967 468.307 360.335 469.274 362.648 C 469.787 363.766 470.143 364.96 470.498 366.116 C 470.656 366.855 470.735 367.557 470.696 368.276 Z" opacity="0.1" transform="matrix(0.999998, -0.002227, 0.002227, 0.999998, -0.753593, 0.845343)" bx:origin="-2.011 0.116"/>
    <path d="M 448.529 342.237 C 449.911 342.654 450.444 344.378 450.09 345.724 C 449.695 347.088 448.689 348.169 447.86 349.287 C 447.032 350.405 446.301 351.77 446.539 353.115 C 446.697 353.759 446.913 354.309 447.25 354.859 C 450.664 361.871 449.087 370.835 443.425 376.388 C 446.583 377.468 450.53 378.416 453.035 376.275 C 453.529 375.839 454.041 375.232 454.713 375.232 C 455.581 375.194 456.154 376.066 456.43 376.862 C 457.24 379.61 456.825 382.586 455.208 384.993 C 458.109 384.178 461.325 382.888 462.449 380.179 C 462.962 378.984 462.962 377.639 463.199 376.35 C 463.455 375.062 464.086 373.696 465.329 373.147 C 466.158 372.787 467.027 372.825 467.915 372.579 C 469.828 372.01 470.953 369.944 470.992 368.012 C 471.031 366.04 470.221 364.202 469.531 362.382 C 465.484 352.281 469.274 360.373 467.061 348.206 C 466.607 345.724 467.317 344.246 467.909 341.82 C 468.501 339.356 468.342 336.513 466.566 334.675 C 464.789 332.78 462.026 332.438 459.816 331.187 C 457.862 330.07 456.145 328.193 453.875 328.231 C 452.197 328.231 452.197 328.516 450.658 329.122 C 447.975 330.202 444.995 329.861 442.272 330.752 C 439.864 331.548 436.786 334.201 437.537 336.987 C 438.524 340.739 441.247 337.992 443.379 338.37 C 444.504 338.617 444.898 339.83 445.569 340.569 C 446.576 341.687 447.03 341.82 448.529 342.237 Z" transform="matrix(0.999998, -0.002227, 0.002227, 0.999998, -0.753541, 0.845263)" fill="#4a4347" bx:origin="-1.735 0.186"/>
    <path d="M 422.983 388.157 C 422.983 388.157 421.799 388.044 420.26 387.797 C 416.214 387.21 409.346 385.846 413.253 383.931 C 416.844 382.15 421.759 383.646 424.62 384.859 C 425.468 385.201 426.258 385.599 427.048 386.053 Z" transform="matrix(0.999998, -0.002227, 0.002227, 0.999998, -0.753694, 0.845221)" fill="#a1616a" bx:origin="-2.202 -8.769"/>
    <path d="M 444.507 364.448 C 444.507 364.448 442.675 373.394 441.748 375.345 C 440.839 377.336 439.341 382.49 439.341 382.49 C 439.341 382.49 437.131 384.405 435.336 386.242 L 436.145 383.533 L 436.184 381.903 C 436.184 381.164 436.223 380.254 436.223 379.173 C 436.301 374.815 436.378 368.41 436.22 365.491 C 436.378 365.206 436.496 365.016 436.496 365.016 L 437.917 362.856 C 437.917 362.856 440.284 356.811 441.625 355.143 C 442.947 353.438 444.507 364.448 444.507 364.448 Z" opacity="0.1" transform="matrix(0.999998, -0.002227, 0.002227, 0.999998, -0.75362, 0.845503)" bx:origin="-6.112 -0.516"/>
    <path d="M 424.107 386.963 C 424.107 386.963 423.89 387.721 423.555 388.802 C 423.101 388.593 422.706 388.48 422.469 388.385 C 421.266 388.006 422.667 387.532 422.312 386.489 C 422.016 385.599 421.424 385.883 420.791 385.637 C 421.226 385.087 421.679 384.557 422.192 384.044 Z" opacity="0.1" transform="matrix(0.999998, -0.002227, 0.002227, 0.999998, -0.752742, 0.844619)" bx:origin="-12.637 -9.587"/>
    <path d="M 437.699 362.818 L 436.259 365.016 C 436.259 365.016 434.306 368.485 433.991 369.565 C 433.715 370.646 433.084 374.758 431.88 375.706 C 430.677 376.653 428.171 379.705 428.566 380.349 C 428.882 380.937 425.172 381.695 425.172 381.695 C 425.172 381.695 422.705 382.661 422.843 383.401 C 422.982 384.12 420.791 384.765 421.561 385.295 C 422.351 385.846 423.061 385.295 423.416 386.319 C 423.752 387.361 422.351 387.835 423.555 388.252 C 424.778 388.631 428.765 390.242 428.765 390.242 C 428.765 390.242 431.923 390.753 432.87 388.915 C 433.797 387.096 439.045 382.49 439.045 382.49 C 439.045 382.49 440.543 377.336 441.511 375.345 C 442.398 373.394 444.232 364.448 444.232 364.448 C 444.232 364.448 442.749 353.438 441.408 355.143 C 440.086 356.849 437.699 362.818 437.699 362.818 Z" transform="matrix(0.999998, -0.002227, 0.002227, 0.999998, -0.753593, 0.845361)" style="fill: rgb(1, 150, 127);" bx:origin="-1.847 -0.457"/>
    <path d="M 433.637 380.424 C 433.637 380.424 426.573 381.296 430.382 382.756 C 434.132 384.291 435.414 382.756 435.414 382.756 Z" opacity="0.1" transform="matrix(0.999998, -0.002227, 0.002227, 0.999998, -0.754716, 0.845203)" bx:origin="-8.135 -13.638"/>
    <path d="M 424.896 384.405 C 424.896 384.405 429 383.609 430.086 384.405 C 431.172 385.238 424.896 384.405 424.896 384.405 Z" opacity="0.1" transform="matrix(0.999998, -0.002227, 0.002227, 0.999998, -0.753673, 0.84517)" bx:origin="-8.608 -62.436"/>
    <path d="M 424.463 386.452 C 424.463 386.452 424.778 385.769 426.18 386.452 C 427.601 387.172 424.463 386.452 424.463 386.452 Z" opacity="0.1" transform="matrix(0.999998, -0.002227, 0.002227, 0.999998, -0.750745, 0.844747)" bx:origin="-21.818 -77.964"/>
    <path d="M 470.996 392.952 C 470.996 392.952 471.412 399.169 473.169 399.377 C 474.905 399.586 470.996 392.952 470.996 392.952 Z" opacity="0.1" transform="matrix(0.999998, -0.002227, 0.002227, 0.999998, -0.753323, 0.845721)" bx:origin="-35.001 -8.439"/>
    <path d="M 474.743 378.89 C 474.743 378.89 475.039 380.823 473.165 381.126 C 471.33 381.505 474.743 378.89 474.743 378.89 Z" opacity="0.1" transform="matrix(0.999998, -0.002227, 0.002227, 0.999998, -0.753453, 0.844498)" bx:origin="-43.888 -17.656"/>
    <path d="M 453.71 397.368 C 453.71 397.368 453.575 416.528 457.68 418.897 Z" opacity="0.1" transform="matrix(0.999998, -0.002227, 0.002227, 0.999998, -0.753539, 0.84581)" bx:origin="-18.71 -2.721"/>
    <path d="M 459.079 398.22 C 459.079 398.22 459.003 417.381 463.088 419.75 Z" opacity="0.1" transform="matrix(0.999998, -0.002227, 0.002227, 0.999998, -0.75361, 0.843867)" bx:origin="-20.087 -2.759"/>
    <path d="M 437.437 439.688 C 438.345 439.612 439.313 439.612 440.22 439.688 C 441.759 439.82 437.437 439.688 437.437 439.688 Z" opacity="0.1" transform="matrix(0.999998, -0.002227, 0.002227, 0.999998, -0.752481, 0.845031)" bx:origin="-18.741 -875.762"/>
    <path d="M 437.437 441.052 C 438.344 440.976 439.291 440.976 440.22 441.052 C 441.759 441.185 437.437 441.052 437.437 441.052 Z" opacity="0.1" transform="matrix(0.999998, -0.002227, 0.002227, 0.999998, -0.764686, 0.845045)" bx:origin="-18.741 -837.09"/>
    <path d="M 458.512 438.133 C 459.459 438.058 460.387 438.058 461.294 438.133 C 462.834 438.267 458.512 438.133 458.512 438.133 Z" opacity="0.1" transform="matrix(0.999998, -0.002227, 0.002227, 0.999998, -0.76784, 0.844966)" bx:origin="-25.525 -801.87"/>
    <path d="M 459.006 439.214 C 459.914 439.138 460.841 439.138 461.749 439.214 C 463.288 439.346 459.006 439.214 459.006 439.214 Z" opacity="0.1" transform="matrix(0.999998, -0.002227, 0.002227, 0.999998, -0.76523, 0.847038)" bx:origin="-25.689 -822.173"/>
    <g opacity="0.1" transform="matrix(0.405081, -0.000928, 0.000947, 0.38825, 145.127106, 184.256516)" bx:origin="-1.784 0.145">
      <path d="M774.18,544.83c14-14.23,17.89-37.33,9.45-55.39a18.28,18.28,0,0,1-1.72-4.47c-.63-3.52,1.2-7,3.28-9.91s4.53-5.71,5.43-9.17-.41-7.86-3.83-8.92c-3.64-1.14-4.77-1.49-7.25-4.41-1.66-1.94-2.6-5-5.44-5.56-5.24-1.09-12,6-14.41-3.66-1.38-5.42,2.65-10.6,7.3-13.69-5.81,2.41-12.53,8.81-10.81,15.58,2.45,9.69,9.17,2.57,14.41,3.66,2.84.59,3.78,3.62,5.44,5.56,2.49,2.92,3.61,3.27,7.25,4.41,3.42,1.06,4.74,5.46,3.83,8.92s-3.36,6.26-5.43,9.17-3.91,6.39-3.28,9.92a18.37,18.37,0,0,0,1.72,4.46c8.44,18.06,4.5,41.16-9.45,55.39,7.56,2.71,16.83,5.11,23,.31C787.82,549.09,780.42,547.06,774.18,544.83Z" transform="translate(-35 -50.4)"/>
      <path d="M828.31,536.54a6.89,6.89,0,0,0-2,1.38c1.58-.39,3.25-.44,4.8-.93a9,9,0,0,0,3.26-1.82C832.38,535.73,830.2,535.67,828.31,536.54Z" transform="translate(-35 -50.4)"/>
      <path d="M810.89,564.29a55.34,55.34,0,0,1-7.6,2.75,25.13,25.13,0,0,0,3-20.89c-.63-2-2-4.35-4.17-4.29a5.33,5.33,0,0,0-3.32,1.9c2,.07,3.37,2.29,4,4.28a25.13,25.13,0,0,1-3,20.89A43.92,43.92,0,0,0,810.89,564.29Z" transform="translate(-35 -50.4)"/>
    </g>
    <rect x="113.49" y="78.556" width="61.195" height="3.525" transform="matrix(0.999998, -0.002227, 0.002415, 0.999997, 136.568726, 153.293625)" style="fill: rgb(0, 196, 167);" bx:origin="1.965 21.899"/>
    <rect x="113.49" y="180.669" width="61.195" height="3.525" transform="matrix(0.999998, -0.002227, 0.002415, 0.999997, 136.568726, 153.293625)" style="fill: rgb(0, 196, 167);" bx:origin="1.965 -7.324"/>
    <rect x="113.49" y="188.42" width="113.411" height="3.525" opacity="0.2" transform="matrix(0.999998, -0.002227, 0.002415, 0.999997, 136.568726, 153.293625)" style="fill: rgb(0, 209, 178);" bx:origin="1.06 -9.546"/>
    <rect x="113.49" y="193.48" width="113.411" height="3.525" opacity="0.2" transform="matrix(0.999998, -0.002227, 0.002415, 0.999997, 136.568726, 153.293625)" style="fill: rgb(0, 209, 178);" bx:origin="1.06 -10.991"/>
    <rect x="113.49" y="198.521" width="113.411" height="3.525" opacity="0.2" transform="matrix(0.999998, -0.002227, 0.002415, 0.999997, 136.568726, 153.293625)" style="fill: rgb(0, 209, 178);" bx:origin="1.06 -12.436"/>
    <rect x="113.49" y="87.861" width="112.622" height="58.637" opacity="0.2" transform="matrix(0.999998, -0.002227, 0.002415, 0.999997, 136.568726, 153.293625)" style="fill: rgb(0, 209, 178);" bx:origin="1.067 1.146"/>
    <rect x="114.694" y="151.938" width="26.325" height="23.33" opacity="0.2" transform="matrix(0.999998, -0.002227, 0.002415, 0.999997, 136.568726, 153.293625)" style="fill: rgb(0, 209, 178);" bx:origin="4.519 0.135"/>
    <rect x="199.807" y="151.938" width="26.325" height="23.33" opacity="0.2" transform="matrix(0.999998, -0.002227, 0.002415, 0.999997, 136.568726, 153.293625)" style="fill: rgb(0, 209, 178);" bx:origin="1.288 0.135"/>
    <rect x="156.649" y="151.938" width="26.325" height="23.33" opacity="0.2" transform="matrix(0.999998, -0.002227, 0.002415, 0.999997, 136.568726, 153.293625)" style="fill: rgb(0, 209, 178);" bx:origin="2.926 0.135"/>
    <rect x="250.149" y="104.918" width="77.495" height="54.695" opacity="0.2" transform="matrix(0.999998, -0.002227, 0.002415, 0.999997, 136.568726, 153.293625)" style="fill: rgb(0, 209, 178);" bx:origin="-0.212 0.917"/>
    <rect x="258.298" y="116.005" width="61.195" height="3.525" transform="matrix(0.999998, -0.002227, 0.002415, 0.999997, 136.568726, 153.293625)" fill="#ededf4" bx:origin="-0.403 11.176"/>
    <rect x="258.298" y="123.263" width="61.195" height="3.525" transform="matrix(0.999998, -0.002227, 0.002415, 0.999997, 136.568726, 153.293625)" fill="#ededf4" bx:origin="-0.403 9.102"/>
    <rect x="258.298" y="130.503" width="61.195" height="3.525" transform="matrix(0.999998, -0.002227, 0.002415, 0.999997, 136.568726, 153.293625)" fill="#ededf4" bx:origin="-0.403 7.027"/>
    <rect x="258.298" y="137.762" width="61.195" height="3.525" transform="matrix(0.999998, -0.002227, 0.002415, 0.999997, 136.568726, 153.293625)" fill="#ededf4" bx:origin="-0.403 4.954"/>
    <rect x="258.298" y="144.982" width="61.195" height="3.525" transform="matrix(0.999998, -0.002227, 0.002415, 0.999997, 136.568726, 153.293625)" fill="#ededf4" bx:origin="-0.403 2.88"/>
    <rect x="259.601" y="165.81" width="58.61" height="9.836" transform="matrix(0.999998, -0.002227, 0.002415, 0.999997, 136.568726, 153.293625)" style="fill: rgb(0, 196, 167);" bx:origin="-0.442 -1.092"/>
    <rect x="256.463" y="198.559" width="39.271" height="6.577" transform="matrix(0.999998, -0.002227, 0.002415, 0.999997, 136.568726, 153.293625)" style="fill: rgb(0, 196, 167);" bx:origin="-0.58 -6.596"/>
    <clipPath id="a">
      <rect width="39" height="20" rx="3" fill="#fff"/>
    </clipPath>
    <linearGradient id="b" x2="0" y2="1" x1="0" y1="0">
      <stop offset="0" stop-color="#bbb" stop-opacity=".1"/>
      <stop offset="1" stop-opacity=".1"/>
    </linearGradient>
    <g clip-path="url(#a)" transform="matrix(5.155137, 0, 0, 6.149269, 80.369217, 513.543335)">
      <path fill="#000000" d="M0 0h0v20H0z"/>
      <path fill="#000000" d="M0 0h39v20H0z"/>
      <path fill="url(#b)" d="M0 0h39v20H0z"/>
    </g>
    <g fill="#fff" text-anchor="middle" font-family="DejaVu Sans,Verdana,Geneva,sans-serif" font-size="110" transform="matrix(6.165527, 0, 0, 6.149269, 61.124588, 513.543335)">
      <text x="195" y="150" fill="#010101" fill-opacity=".3" transform="scale(.1)" textLength="290" style="white-space: pre;">shiny</text>
      <text x="195" y="140" transform="scale(.1)" textLength="290" style="white-space: pre;">shiny</text>
    </g>
  </g>
  <path class="cls-5" d="M705.61,196.21,427.81,35.82,367.5,1,307.19,35.82,29.37,196.22.09,213.13V637.38l29.28,16.91,281.28,162.4,56.85,32.82,56.85-32.82L705.61,654.3l29.3-16.92V213.13Zm0,425.26L367.49,816.68,29.37,621.47V231L367.49,35.82h0L705.61,231Z" transform="matrix(1, 0, 0, 1, 211.10708, -231.549328)" style="fill: rgb(0, 196, 167);"/>
  <path class="cls-6" d="M367,633.9c.29-.29.6-.59.93-.89h-.26Z" transform="matrix(1, 0, 0, 1, 211.10708, -231.549328)" style="fill: rgb(230, 179, 90);"/>
  <text class="cls-7" transform="matrix(0.86, -0.5, 0.5, 0.86, 580.387079, 577.550648)" style="font-family: MyriadPro-Regular, &quot;Myriad Pro&quot;; font-size: 25px; white-space: pre;">www.rinterface.com</text>
  <text style="fill: rgb(51, 51, 51); font-size: 4px; font-weight: bold; white-space: pre;" x="31.327" y="283.322" transform="matrix(22.763447, 0, 0, 23.683517, -57.880001, -6337.254883)">ulma</text>
</svg>